<mxfile host="app.diagrams.net" modified="2024-03-19T10:09:23.910Z" agent="Mozilla/5.0 (Windows NT 10.0; Win64; x64) AppleWebKit/537.36 (KHTML, like Gecko) Chrome/122.0.0.0 Safari/537.36" etag="TPV9eZOyePx75Oux0hjm" version="24.0.5" type="github">
  <diagram id="C5RBs43oDa-KdzZeNtuy" name="Page-1">
    <mxGraphModel dx="989" dy="509" grid="1" gridSize="10" guides="1" tooltips="1" connect="1" arrows="1" fold="1" page="1" pageScale="1" pageWidth="827" pageHeight="1169" math="0" shadow="0">
      <root>
        <mxCell id="WIyWlLk6GJQsqaUBKTNV-0" />
        <mxCell id="WIyWlLk6GJQsqaUBKTNV-1" parent="WIyWlLk6GJQsqaUBKTNV-0" />
        <mxCell id="AHYVBVA9Mq_Bm24hu5X7-5" value="" style="edgeStyle=orthogonalEdgeStyle;rounded=0;orthogonalLoop=1;jettySize=auto;html=1;" edge="1" parent="WIyWlLk6GJQsqaUBKTNV-1" source="AHYVBVA9Mq_Bm24hu5X7-0" target="AHYVBVA9Mq_Bm24hu5X7-4">
          <mxGeometry relative="1" as="geometry" />
        </mxCell>
        <mxCell id="AHYVBVA9Mq_Bm24hu5X7-0" value="勾选部分订单，填写了对账金额" style="rounded=1;whiteSpace=wrap;html=1;absoluteArcSize=1;arcSize=14;strokeWidth=2;" vertex="1" parent="WIyWlLk6GJQsqaUBKTNV-1">
          <mxGeometry x="170" y="80" width="130" height="50" as="geometry" />
        </mxCell>
        <mxCell id="AHYVBVA9Mq_Bm24hu5X7-2" style="edgeStyle=orthogonalEdgeStyle;rounded=0;orthogonalLoop=1;jettySize=auto;html=1;entryX=0;entryY=0.5;entryDx=0;entryDy=0;" edge="1" parent="WIyWlLk6GJQsqaUBKTNV-1" source="AHYVBVA9Mq_Bm24hu5X7-1" target="AHYVBVA9Mq_Bm24hu5X7-0">
          <mxGeometry relative="1" as="geometry" />
        </mxCell>
        <mxCell id="AHYVBVA9Mq_Bm24hu5X7-1" value="" style="shape=actor;whiteSpace=wrap;html=1;" vertex="1" parent="WIyWlLk6GJQsqaUBKTNV-1">
          <mxGeometry x="50" y="80" width="30" height="50" as="geometry" />
        </mxCell>
        <mxCell id="AHYVBVA9Mq_Bm24hu5X7-3" value="用户A" style="text;html=1;align=center;verticalAlign=middle;whiteSpace=wrap;rounded=0;" vertex="1" parent="WIyWlLk6GJQsqaUBKTNV-1">
          <mxGeometry x="35" y="130" width="60" height="30" as="geometry" />
        </mxCell>
        <mxCell id="AHYVBVA9Mq_Bm24hu5X7-4" value="系统保存 订单号-对账金额数据" style="whiteSpace=wrap;html=1;rounded=1;arcSize=14;strokeWidth=2;" vertex="1" parent="WIyWlLk6GJQsqaUBKTNV-1">
          <mxGeometry x="385" y="75" width="120" height="60" as="geometry" />
        </mxCell>
        <mxCell id="AHYVBVA9Mq_Bm24hu5X7-6" value="" style="edgeStyle=orthogonalEdgeStyle;rounded=0;orthogonalLoop=1;jettySize=auto;html=1;" edge="1" parent="WIyWlLk6GJQsqaUBKTNV-1" source="AHYVBVA9Mq_Bm24hu5X7-7" target="AHYVBVA9Mq_Bm24hu5X7-10">
          <mxGeometry relative="1" as="geometry" />
        </mxCell>
        <mxCell id="AHYVBVA9Mq_Bm24hu5X7-7" value="查询可对账订单" style="rounded=1;whiteSpace=wrap;html=1;absoluteArcSize=1;arcSize=14;strokeWidth=2;" vertex="1" parent="WIyWlLk6GJQsqaUBKTNV-1">
          <mxGeometry x="170" y="215" width="130" height="50" as="geometry" />
        </mxCell>
        <mxCell id="AHYVBVA9Mq_Bm24hu5X7-8" style="edgeStyle=orthogonalEdgeStyle;rounded=0;orthogonalLoop=1;jettySize=auto;html=1;entryX=0;entryY=0.5;entryDx=0;entryDy=0;" edge="1" parent="WIyWlLk6GJQsqaUBKTNV-1" source="AHYVBVA9Mq_Bm24hu5X7-9" target="AHYVBVA9Mq_Bm24hu5X7-7">
          <mxGeometry relative="1" as="geometry" />
        </mxCell>
        <mxCell id="AHYVBVA9Mq_Bm24hu5X7-9" value="" style="shape=actor;whiteSpace=wrap;html=1;" vertex="1" parent="WIyWlLk6GJQsqaUBKTNV-1">
          <mxGeometry x="50" y="215" width="30" height="50" as="geometry" />
        </mxCell>
        <mxCell id="AHYVBVA9Mq_Bm24hu5X7-10" value="可对账单" style="whiteSpace=wrap;html=1;rounded=1;arcSize=14;strokeWidth=2;" vertex="1" parent="WIyWlLk6GJQsqaUBKTNV-1">
          <mxGeometry x="385" y="210" width="120" height="60" as="geometry" />
        </mxCell>
        <mxCell id="AHYVBVA9Mq_Bm24hu5X7-11" value="用户B" style="text;html=1;align=center;verticalAlign=middle;whiteSpace=wrap;rounded=0;" vertex="1" parent="WIyWlLk6GJQsqaUBKTNV-1">
          <mxGeometry x="35" y="270" width="60" height="30" as="geometry" />
        </mxCell>
      </root>
    </mxGraphModel>
  </diagram>
</mxfile>
